#N canvas 0 0 1920 1055 12;
#X floatatom 1519 84 5 0 0 0 - - -, f 5;
#X floatatom 1444 95 5 0 0 0 - - -, f 5;
#X obj 1504 41 notein;
#X floatatom 1608 79 5 0 0 0 - - -, f 5;
#X obj 1506 161 poly 5;
#X obj 1506 134 list;
#X obj 1506 189 pack 0 0 0;
#X floatatom 1407 181 5 0 0 0 - - -, f 5;
#X floatatom 1529 223 5 0 0 0 - - -, f 5;
#X floatatom 1631 184 5 0 0 0 - - -, f 5;
#X obj 1542 261 clone い 6;
#X obj 1630 263 clone お 6;
#X obj 1714 266 clone う 6;
#X obj 1455 258 clone え 6;
#X obj 1367 257 clone あ 6;
#X obj 1537 307 dac~;
#X msg 1152 240 open か.wav;
#X msg 932 296 open く.wav;
#X msg 1210 275 open け.wav;
#X msg 983 222 open こ.wav;
#X msg 1069 277 open き.wav;
#X obj 57 88 soundfiler;
#X floatatom 143 90 5 0 0 0 - - -, f 5;
#N canvas 0 0 450 300 (subpatch) 0;
#X array audiofile 67320 float 0 black black;
#X coords 0 1 67319 -1 200 140 1;
#X restore 457 54 graph;
#X msg 57 58 read -resize か.wav audiofile, f 29;
#X obj 58 430 tabread4~ audiofile;
#X obj 58 918 *~;
#X obj 58 948 dac~;
#X obj 58 400 vline~;
#X obj 459 228 hsl 194 16 0 67320 0 0 empty empty empty -2 -8 0 10
-262144 -1 -1 0 1;
#X msg 57 141 range 0 \$1;
#X msg 138 369 \$1 100;
#X text 617 201 start;
#X obj 458 284 hsl 194 16 0 67320 0 0 empty empty empty -2 -8 0 10
-262144 -1 -1 19300 1;
#X text 632 256 end;
#X obj 139 252 pack 44.1 f f;
#X obj 139 284 expr abs($f3 - $f2) / $f1;
#X floatatom 231 394 5 0 0 0 - - -, f 5;
#X obj 139 223 bng 15 250 50 0 empty empty empty 17 7 0 10 -262144
-1 -1;
#X obj 58 337 pack f f f f;
#X floatatom 550 203 8 0 0 0 - - -, f 8;
#X floatatom 549 257 8 0 0 0 - - -, f 8;
#X msg 58 369 \$2 \, \$3 \$4;
#X obj 58 247 metro;
#X obj 58 225 bng 15 250 50 0 empty empty empty 17 7 0 10 -262144 -1
-1;
#X msg 82 224 0, f 2;
#X obj 58 274 bng 15 250 50 0 empty empty empty 17 7 0 10 -262144 -1
-1;
#N canvas 0 0 450 300 (subpatch) 0;
#X array fade 73273 float 2 black black;
#X coords 0 1 73273 0 200 140 1;
#X restore 458 317 graph;
#X msg 280 425 range 0 \$1;
#X obj 365 397 bng 15 250 50 0 empty empty empty 17 7 0 10 -262144
-1 -1;
#X obj 366 426 t b b;
#X obj 222 829 tabwrite~ fade;
#X obj 88 655 vline~;
#X obj 448 795 vline~;
#X obj 88 686 pow~ 1;
#X obj 448 826 pow~ 1;
#X obj 348 804 snapshot~;
#X floatatom 348 827 5 0 0 0 - - -, f 5;
#X obj 423 717 vsl 15 128 0 1 0 0 empty empty empty 0 -9 0 10 -262144
-1 -1 0 1;
#X obj 348 753 bng 15 250 50 0 empty empty empty 17 7 0 10 -262144
-1 -1;
#X obj 573 799 snapshot~;
#X floatatom 573 822 5 0 0 0 - - -, f 5;
#X obj 573 772 metro 100;
#X obj 645 716 vsl 15 128 0 1 0 0 empty empty empty 0 -9 0 10 -262144
-1 -1 0 1;
#X obj 573 747 bng 15 250 50 0 empty empty empty 17 7 0 10 -262144
-1 -1;
#X floatatom 89 475 5 0 0 0 - - -, f 5;
#X floatatom 482 476 5 0 0 0 - - -, f 5;
#X obj 89 515 expr $f1 - ($f2 + $f3);
#X floatatom 285 514 5 0 0 0 - - -, f 5;
#X obj 88 578 pack f f f;
#X msg 88 623 1 \$2 \, 0 0 \$2;
#X msg 448 766 1 0 \$2 \, 0 \$3 \$1;
#X obj 88 548 +;
#X obj 104 805 snapshot~;
#X floatatom 104 828 5 0 0 0 - - -, f 5;
#X obj 104 778 metro 100;
#X obj 182 716 vsl 15 128 0 1 0 0 empty empty empty 0 -9 0 10 -262144
-1 -1 0 1;
#X obj 104 756 bng 15 250 50 0 empty empty empty 17 7 0 10 -262144
-1 -1;
#X obj 58 888 *~;
#X obj 280 395 / 2;
#X floatatom 318 395 5 0 0 0 - - -, f 5;
#X obj 143 141 * 1.08844;
#X floatatom 218 141 9 0 0 0 - - -, f 9;
#X obj 143 118 bng 15 250 50 0 empty empty empty 17 7 0 10 -262144
-1 -1;
#X msg 143 169 \; fade resize \$1;
#X obj 527 479 hsl 128 15 0 763.265 0 0 empty empty empty -2 -8 0 10
-262144 -1 -1 0 1;
#X obj 137 477 hsl 128 15 0 763.265 0 0 empty empty empty -2 -8 0 10
-262144 -1 -1 0 1;
#X obj 285 577 hsl 128 15 0 1 0 0 empty empty empty -2 -8 0 10 -262144
-1 -1 12700 1;
#X obj 285 660 hsl 128 15 0 10 0 0 empty empty empty -2 -8 0 10 -262144
-1 -1 0 1;
#X floatatom 381 685 5 0 0 0 - - -, f 5;
#X floatatom 380 602 5 0 0 0 - - -, f 5;
#X obj 207 631 f;
#X obj 239 631 f;
#X obj 207 659 +;
#X floatatom 239 660 5 0 0 0 - - -, f 5;
#X obj 207 603 t b b;
#X obj 259 604 bng 15 250 50 0 empty empty empty 17 7 0 10 -262144
-1 -1;
#X obj 207 550 bng 15 250 50 0 empty empty empty 17 7 0 10 -262144
-1 -1;
#X msg 237 549 stop;
#X text 330 631 exponent > 1;
#X text 296 548 rational exponent;
#X obj 207 716 line;
#X floatatom 250 715 10 0 0 0 - - -, f 10;
#X obj 207 689 pack f 100;
#X obj 526 576 hsl 128 15 0 1 0 0 empty empty empty -2 -8 0 10 -262144
-1 -1 12700 1;
#X obj 526 659 hsl 128 15 0 10 0 0 empty empty empty -2 -8 0 10 -262144
-1 -1 0 1;
#X floatatom 622 685 5 0 0 0 - - -, f 5;
#X floatatom 622 600 5 0 0 0 - - -, f 5;
#X obj 448 630 f;
#X obj 480 630 f;
#X obj 448 658 +;
#X floatatom 480 659 5 0 0 0 - - -, f 5;
#X obj 448 602 t b b;
#X obj 499 602 bng 15 250 50 0 empty empty empty 17 7 0 10 -262144
-1 -1;
#X obj 448 549 bng 15 250 50 0 empty empty empty 17 7 0 10 -262144
-1 -1;
#X msg 478 548 stop;
#X text 571 630 exponent > 1;
#X text 537 547 rational exponent;
#X obj 448 715 line;
#X floatatom 491 714 10 0 0 0 - - -, f 10;
#X obj 448 688 pack f 100;
#X obj 188 887 hsl 370 47 0 1 0 0 empty empty empty -2 -8 0 10 -262144
-1 -1 9225 1;
#X obj 103 914 line;
#X floatatom 103 947 10 0 0 0 - - -, f 10;
#X obj 103 887 pack f 100;
#X obj 312 55 bng 136 250 50 0 empty empty empty 17 7 0 10 -262144
-1 -1;
#X obj 448 574 metro 100;
#X obj 207 575 metro 100;
#X obj 620 826 bng 15 250 50 0 empty empty empty 17 7 0 10 -262144
-1 -1;
#X obj 156 830 bng 15 250 50 0 empty empty empty 17 7 0 10 -262144
-1 -1;
#X obj 399 830 bng 15 250 50 0 empty empty empty 17 7 0 10 -262144
-1 -1;
#X msg 604 747 stop;
#X msg 136 753 stop;
#X msg 379 751 stop;
#X obj 348 777 metro 100;
#X obj 362 256 f;
#X obj 362 207 bng 15 250 50 0 empty empty empty 17 7 0 10 -262144
-1 -1;
#X obj 362 229 del 100;
#X text 285 475 fadein;
#X text 606 504 fadeout;
#X obj 579 891 bng 15 250 50 0 empty empty empty 17 7 0 10 -262144
-1 -1;
#X obj 579 914 t b b b b b;
#X text 620 889 panic;
#X obj 341 474 bng 15 250 50 0 empty empty empty 17 7 0 10 -262144
-1 -1;
#X obj 341 498 t b b b b b b b b;
#X obj 404 473 loadbang;
#X obj 362 286 ii;
#X obj 526 514 ii 1;
#X obj 188 860 ii 0.25;
#X obj 820 470 readsf~;
#X obj 735 382 spigot;
#X obj 735 410 select 60;
#X msg 820 439 start;
#X msg 735 439 open あ.wav;
#X obj 868 409 sel 0;
#X msg 868 438 stop;
#X obj 735 324 inlet;
#X obj 820 499 outlet~;
#X obj 735 352 unpack;
#X connect 2 0 1 0;
#X connect 2 0 5 0;
#X connect 2 1 0 0;
#X connect 2 1 5 1;
#X connect 2 2 3 0;
#X connect 4 0 7 0;
#X connect 4 0 6 0;
#X connect 4 1 8 0;
#X connect 4 1 6 1;
#X connect 4 2 9 0;
#X connect 4 2 6 2;
#X connect 5 0 4 0;
#X connect 6 0 10 0;
#X connect 6 0 11 0;
#X connect 6 0 12 0;
#X connect 6 0 13 0;
#X connect 10 0 15 0;
#X connect 10 0 15 1;
#X connect 11 0 15 0;
#X connect 11 0 15 1;
#X connect 12 0 15 0;
#X connect 12 0 15 1;
#X connect 13 0 15 0;
#X connect 13 0 15 1;
#X connect 21 0 22 0;
#X connect 21 0 30 0;
#X connect 21 0 81 0;
#X connect 21 0 136 0;
#X connect 21 0 135 1;
#X connect 24 0 21 0;
#X connect 25 0 78 0;
#X connect 26 0 27 0;
#X connect 26 0 27 1;
#X connect 28 0 25 0;
#X connect 29 0 31 0;
#X connect 29 0 40 0;
#X connect 29 0 35 1;
#X connect 30 0 29 0;
#X connect 30 0 33 0;
#X connect 31 0 28 0;
#X connect 33 0 31 0;
#X connect 33 0 41 0;
#X connect 33 0 35 2;
#X connect 35 0 36 0;
#X connect 35 0 39 0;
#X connect 36 0 37 0;
#X connect 36 0 39 3;
#X connect 36 0 43 1;
#X connect 36 0 67 0;
#X connect 36 0 79 0;
#X connect 38 0 49 0;
#X connect 38 0 35 0;
#X connect 39 0 42 0;
#X connect 42 0 28 0;
#X connect 43 0 46 0;
#X connect 43 0 38 0;
#X connect 44 0 43 0;
#X connect 45 0 43 0;
#X connect 48 0 85 0;
#X connect 48 0 86 0;
#X connect 49 0 50 0;
#X connect 50 0 51 0;
#X connect 50 1 85 0;
#X connect 50 1 86 0;
#X connect 52 0 54 0;
#X connect 53 0 55 0;
#X connect 54 0 56 0;
#X connect 54 0 51 0;
#X connect 54 0 73 0;
#X connect 54 0 78 1;
#X connect 55 0 51 0;
#X connect 55 0 73 0;
#X connect 55 0 78 1;
#X connect 55 0 60 0;
#X connect 56 0 57 0;
#X connect 57 0 58 0;
#X connect 59 0 134 0;
#X connect 60 0 61 0;
#X connect 61 0 63 0;
#X connect 62 0 60 0;
#X connect 62 0 128 0;
#X connect 64 0 62 0;
#X connect 67 0 68 0;
#X connect 67 0 72 0;
#X connect 69 0 70 0;
#X connect 69 0 71 0;
#X connect 70 0 52 0;
#X connect 71 0 53 0;
#X connect 72 0 69 0;
#X connect 73 0 74 0;
#X connect 74 0 76 0;
#X connect 75 0 73 0;
#X connect 75 0 129 0;
#X connect 77 0 75 0;
#X connect 78 0 26 0;
#X connect 79 0 80 0;
#X connect 79 0 48 0;
#X connect 81 0 82 0;
#X connect 81 0 84 0;
#X connect 83 0 81 0;
#X connect 85 0 67 2;
#X connect 85 0 69 2;
#X connect 85 0 66 0;
#X connect 86 0 65 0;
#X connect 86 0 69 1;
#X connect 86 0 72 1;
#X connect 86 0 67 1;
#X connect 87 0 90 0;
#X connect 87 0 91 1;
#X connect 88 0 89 0;
#X connect 88 0 92 1;
#X connect 91 0 93 0;
#X connect 92 0 93 1;
#X connect 93 0 94 0;
#X connect 93 0 103 0;
#X connect 95 0 91 0;
#X connect 95 1 92 0;
#X connect 97 0 127 0;
#X connect 98 0 127 0;
#X connect 101 0 102 0;
#X connect 101 0 54 1;
#X connect 103 0 101 0;
#X connect 104 0 107 0;
#X connect 104 0 108 1;
#X connect 105 0 106 0;
#X connect 105 0 109 1;
#X connect 108 0 110 0;
#X connect 109 0 110 1;
#X connect 110 0 111 0;
#X connect 110 0 120 0;
#X connect 112 0 108 0;
#X connect 112 1 109 0;
#X connect 114 0 126 0;
#X connect 115 0 126 0;
#X connect 118 0 119 0;
#X connect 118 0 55 1;
#X connect 120 0 118 0;
#X connect 121 0 124 0;
#X connect 122 0 26 1;
#X connect 122 0 123 0;
#X connect 124 0 122 0;
#X connect 125 0 38 0;
#X connect 126 0 113 0;
#X connect 126 0 112 0;
#X connect 127 0 96 0;
#X connect 127 0 95 0;
#X connect 131 0 62 0;
#X connect 132 0 75 0;
#X connect 133 0 134 0;
#X connect 134 0 56 0;
#X connect 134 0 130 0;
#X connect 135 0 146 0;
#X connect 136 0 137 0;
#X connect 137 0 135 0;
#X connect 140 0 141 0;
#X connect 141 0 132 0;
#X connect 141 1 133 0;
#X connect 141 2 98 0;
#X connect 141 3 115 0;
#X connect 141 4 131 0;
#X connect 143 0 144 0;
#X connect 144 0 77 0;
#X connect 144 1 59 0;
#X connect 144 2 64 0;
#X connect 144 3 97 0;
#X connect 144 4 114 0;
#X connect 144 6 24 0;
#X connect 145 0 144 0;
#X connect 146 0 33 0;
#X connect 147 0 87 0;
#X connect 147 0 104 0;
#X connect 148 0 121 0;
#X connect 149 0 157 0;
#X connect 150 0 151 0;
#X connect 151 0 153 0;
#X connect 151 0 152 0;
#X connect 152 0 149 0;
#X connect 153 0 149 0;
#X connect 154 0 155 0;
#X connect 155 0 149 0;
#X connect 156 0 158 0;
#X connect 158 0 150 0;
#X connect 158 1 150 1;
#X connect 158 1 154 0;
#X coords 0 1055 1 1054 0 0 0;
