#N canvas 0 0 1920 1055 12;
#X floatatom 163 260 5 0 0 0 - - -, f 5;
#X floatatom 59 260 5 0 0 0 - - -, f 5;
#X obj 105 259 notein;
#X floatatom 211 260 5 0 0 0 - - -, f 5;
#X obj 105 318 poly 5;
#X obj 105 291 list;
#X obj 303 437 clone い 6;
#X obj 391 439 clone お 6;
#X obj 475 442 clone う 6;
#X obj 216 434 clone え 6;
#X obj 103 438 clone あ 6, f 11;
#X obj 203 527 dac~;
#X msg 257 43 open か.wav;
#X msg 37 99 open く.wav;
#X msg 315 78 open け.wav;
#X msg 88 25 open こ.wav;
#X msg 174 80 open き.wav;
#X obj 734 42 vsl 33 267 0 127 0 0 empty empty empty 0 -9 0 10 -262144
-1 -1 6702 1;
#X obj 445 70 hsl 128 15 0 127 0 0 empty empty empty -2 -8 0 10 -262144
-1 -1 0 1;
#X obj 445 124 hsl 128 15 0 127 0 0 empty empty empty -2 -8 0 10 -262144
-1 -1 12700 1;
#X obj 581 187 hsl 128 15 0 127 0 0 empty empty empty -2 -8 0 10 -262144
-1 -1 0 1;
#X obj 581 242 hsl 128 15 0 127 0 0 empty empty empty -2 -8 0 10 -262144
-1 -1 12700 1;
#X obj 581 298 hsl 128 15 0 127 0 0 empty empty empty -2 -8 0 10 -262144
-1 -1 0 1;
#X text 445 41 start;
#X text 445 94 end;
#X text 581 268 exponent > 1;
#X text 581 159 fade out;
#X text 581 213 rational exponent;
#X obj 311 186 hsl 128 15 0 127 0 0 empty empty empty -2 -8 0 10 -262144
-1 -1 0 1;
#X obj 311 241 hsl 128 15 0 127 0 0 empty empty empty -2 -8 0 10 -262144
-1 -1 12700 1;
#X obj 311 297 hsl 128 15 0 127 0 0 empty empty empty -2 -8 0 10 -262144
-1 -1 0 1;
#X text 311 267 exponent > 1;
#X text 311 212 rational exponent;
#X text 311 158 fade in;
#X obj 105 345 pack 0 0 0 0 0 0 0 0 0 0 0 0;
#X obj 532 95 ii 127;
#X obj 734 13 ii 32;
#X obj 492 211 ii 127;
#X obj 758 390 notein;
#X obj 758 419 list;
#X obj 758 448 poly 5;
#X obj 758 477 pack 0 0 0;
#X obj 758 518 clone く 6;
#X connect 2 0 1 0;
#X connect 2 0 5 0;
#X connect 2 1 0 0;
#X connect 2 1 5 1;
#X connect 2 2 3 0;
#X connect 4 0 34 0;
#X connect 4 1 34 1;
#X connect 4 2 34 2;
#X connect 5 0 4 0;
#X connect 6 0 11 0;
#X connect 6 0 11 1;
#X connect 7 0 11 0;
#X connect 7 0 11 1;
#X connect 8 0 11 0;
#X connect 8 0 11 1;
#X connect 9 0 11 0;
#X connect 9 0 11 1;
#X connect 10 0 11 0;
#X connect 10 0 11 1;
#X connect 17 0 34 11;
#X connect 18 0 34 3;
#X connect 19 0 34 4;
#X connect 20 0 34 8;
#X connect 21 0 34 9;
#X connect 22 0 34 10;
#X connect 28 0 34 5;
#X connect 29 0 34 6;
#X connect 30 0 34 7;
#X connect 34 0 9 0;
#X connect 34 0 6 0;
#X connect 34 0 7 0;
#X connect 34 0 8 0;
#X connect 34 0 10 0;
#X connect 35 0 19 0;
#X connect 36 0 17 0;
#X connect 37 0 21 0;
#X connect 37 0 29 0;
#X connect 38 0 39 0;
#X connect 38 1 39 1;
#X connect 39 0 40 0;
#X connect 40 0 41 0;
#X connect 40 1 41 1;
#X connect 40 2 41 2;
#X connect 41 0 42 0;
#X coords 0 1055 1 1054 0 0 0;
