#N canvas 0 0 1920 1055 12;
#X floatatom 163 260 5 0 0 0 - - -, f 5;
#X floatatom 59 260 5 0 0 0 - - -, f 5;
#X obj 105 259 notein;
#X floatatom 211 260 5 0 0 0 - - -, f 5;
#X obj 105 291 list;
#X obj 77 687 dac~;
#X obj 734 42 vsl 33 267 0 127 0 0 empty empty empty 0 -9 0 10 -262144
-1 -1 6702 1;
#X obj 445 70 hsl 128 15 0 127 0 0 empty empty empty -2 -8 0 10 -262144
-1 -1 0 1;
#X obj 445 124 hsl 128 15 0 127 0 0 empty empty empty -2 -8 0 10 -262144
-1 -1 12700 1;
#X obj 581 187 hsl 128 15 0 127 0 0 empty empty empty -2 -8 0 10 -262144
-1 -1 0 1;
#X obj 581 242 hsl 128 15 0 127 0 0 empty empty empty -2 -8 0 10 -262144
-1 -1 12700 1;
#X obj 581 298 hsl 128 15 0 127 0 0 empty empty empty -2 -8 0 10 -262144
-1 -1 0 1;
#X text 445 41 start;
#X text 445 94 end;
#X text 581 268 exponent > 1;
#X text 581 159 fade out;
#X text 581 213 rational exponent;
#X obj 311 186 hsl 128 15 0 127 0 0 empty empty empty -2 -8 0 10 -262144
-1 -1 0 1;
#X obj 311 241 hsl 128 15 0 127 0 0 empty empty empty -2 -8 0 10 -262144
-1 -1 12700 1;
#X obj 311 297 hsl 128 15 0 127 0 0 empty empty empty -2 -8 0 10 -262144
-1 -1 0 1;
#X text 311 267 exponent > 1;
#X text 311 212 rational exponent;
#X text 311 158 fade in;
#X obj 105 345 pack 0 0 0 0 0 0 0 0 0 0 0 0;
#X obj 532 95 ii 127;
#X obj 734 13 ii 32;
#X obj 492 211 ii 127;
#X obj 216 434 clone え 6, f 10;
#X obj 303 437 clone い 6, f 10;
#X obj 391 438 clone お 6, f 10;
#X obj 475 440 clone う 6, f 10;
#X obj 129 507 clone か 6, f 10;
#X obj 105 318 poly 5 1;
#X obj 227 509 clone き 6, f 10;
#X obj 320 508 clone く 6, f 10;
#X obj 408 509 clone け 6, f 10;
#X obj 492 511 clone こ 6, f 10;
#X obj 101 436 clone あ 6, f 11;
#X connect 2 0 1 0;
#X connect 2 0 4 0;
#X connect 2 1 0 0;
#X connect 2 1 4 1;
#X connect 2 2 3 0;
#X connect 4 0 32 0;
#X connect 6 0 23 11;
#X connect 7 0 23 3;
#X connect 8 0 23 4;
#X connect 9 0 23 8;
#X connect 10 0 23 9;
#X connect 11 0 23 10;
#X connect 17 0 23 5;
#X connect 18 0 23 6;
#X connect 19 0 23 7;
#X connect 23 0 27 0;
#X connect 23 0 28 0;
#X connect 23 0 29 0;
#X connect 23 0 30 0;
#X connect 23 0 31 0;
#X connect 23 0 33 0;
#X connect 23 0 36 0;
#X connect 23 0 35 0;
#X connect 23 0 34 0;
#X connect 23 0 37 0;
#X connect 24 0 8 0;
#X connect 25 0 6 0;
#X connect 26 0 10 0;
#X connect 26 0 18 0;
#X connect 27 0 5 0;
#X connect 27 0 5 1;
#X connect 28 0 5 0;
#X connect 28 0 5 1;
#X connect 29 0 5 0;
#X connect 29 0 5 1;
#X connect 30 0 5 0;
#X connect 30 0 5 1;
#X connect 31 0 5 0;
#X connect 31 0 5 1;
#X connect 32 0 23 0;
#X connect 32 1 23 1;
#X connect 32 2 23 2;
#X connect 33 0 5 0;
#X connect 33 0 5 1;
#X connect 34 0 5 0;
#X connect 34 0 5 1;
#X connect 35 0 5 0;
#X connect 35 0 5 1;
#X connect 36 0 5 0;
#X connect 36 0 5 1;
#X connect 37 0 5 0;
#X connect 37 0 5 1;
#X coords 0 1055 1 1054 0 0 0;
