#N canvas 0 0 1920 1055 12;
#X obj 79 87 keyname;
#X symbolatom 118 115 10 0 0 0 - - -, f 10;
#X floatatom 79 115 5 0 0 0 - - -, f 5;
#X obj 424 183 spigot;
#X obj 471 81 key;
#X floatatom 506 82 5 0 0 0 - - -, f 5;
#X msg 562 143 0;
#X msg 471 142 1;
#X floatatom 611 82 5 0 0 0 - - -, f 5;
#X obj 562 81 keyup;
#X obj 471 112 select 107;
#X obj 562 112 select 107;
#X msg 358 144 start;
#X obj 261 80 key;
#X floatatom 296 81 5 0 0 0 - - -, f 5;
#X obj 261 111 select 97;
#X floatatom 422 79 5 0 0 0 - - -, f 5;
#X obj 375 111 select 97;
#X obj 375 80 keyup;
#X msg 418 142 stop;
#X msg 263 143 open か.wav;
#X obj 425 741 spigot;
#X obj 472 639 key;
#X floatatom 507 640 5 0 0 0 - - -, f 5;
#X msg 563 701 0;
#X msg 472 700 1;
#X floatatom 612 640 5 0 0 0 - - -, f 5;
#X obj 563 639 keyup;
#X obj 472 670 select 107;
#X obj 563 670 select 107;
#X msg 359 702 start;
#X obj 262 638 key;
#X floatatom 297 639 5 0 0 0 - - -, f 5;
#X floatatom 423 637 5 0 0 0 - - -, f 5;
#X obj 376 638 keyup;
#X msg 419 700 stop;
#X obj 426 320 spigot;
#X obj 473 218 key;
#X floatatom 508 219 5 0 0 0 - - -, f 5;
#X msg 564 280 0;
#X msg 473 279 1;
#X floatatom 613 219 5 0 0 0 - - -, f 5;
#X obj 564 218 keyup;
#X obj 473 249 select 107;
#X obj 564 249 select 107;
#X msg 360 281 start;
#X obj 263 217 key;
#X floatatom 298 218 5 0 0 0 - - -, f 5;
#X floatatom 424 216 5 0 0 0 - - -, f 5;
#X obj 377 217 keyup;
#X msg 420 279 stop;
#X obj 425 600 spigot;
#X obj 472 498 key;
#X floatatom 507 499 5 0 0 0 - - -, f 5;
#X msg 563 560 0;
#X msg 472 559 1;
#X floatatom 612 499 5 0 0 0 - - -, f 5;
#X obj 563 498 keyup;
#X obj 563 529 select 107;
#X msg 359 561 start;
#X obj 262 497 key;
#X floatatom 297 498 5 0 0 0 - - -, f 5;
#X floatatom 423 496 5 0 0 0 - - -, f 5;
#X obj 376 497 keyup;
#X msg 419 559 stop;
#X obj 425 461 spigot;
#X obj 472 359 key;
#X floatatom 507 360 5 0 0 0 - - -, f 5;
#X msg 563 421 0;
#X msg 472 420 1;
#X floatatom 612 360 5 0 0 0 - - -, f 5;
#X obj 563 359 keyup;
#X obj 472 390 select 107;
#X obj 563 390 select 107;
#X msg 264 701 open く.wav;
#X msg 265 280 open け.wav;
#X msg 264 560 open こ.wav;
#X obj 337 188 bng 15 250 50 0 empty empty empty 17 7 0 10 -262144
-1 -1;
#X obj 377 248 select 101;
#X obj 262 669 select 117;
#X obj 376 669 select 117;
#X obj 262 528 select 111;
#X obj 376 528 select 111;
#X obj 472 529 select 111;
#X obj 263 248 select 101;
#X msg 353 426 start;
#X obj 258 360 key;
#X floatatom 293 361 5 0 0 0 - - -, f 5;
#X floatatom 416 358 5 0 0 0 - - -, f 5;
#X obj 369 359 keyup;
#X msg 413 424 stop;
#X obj 258 391 select 105;
#X obj 369 390 select 105;
#X msg 258 425 open き.wav;
#X floatatom 1037 97 5 0 0 0 - - -, f 5;
#X floatatom 962 108 5 0 0 0 - - -, f 5;
#X obj 1022 54 notein;
#X floatatom 1126 92 5 0 0 0 - - -, f 5;
#X obj 1024 174 poly 5;
#X obj 1024 147 list;
#X obj 1024 202 pack 0 0 0;
#X floatatom 925 194 5 0 0 0 - - -, f 5;
#X floatatom 1047 236 5 0 0 0 - - -, f 5;
#X floatatom 1149 197 5 0 0 0 - - -, f 5;
#X obj 1075 291 clone い 6;
#X obj 1163 293 clone お 6;
#X obj 1247 296 clone う 6;
#X obj 988 288 clone え 6;
#X obj 900 287 clone あ 6;
#X obj 1050 497 dac~;
#N canvas 0 0 450 300 (subpatch) 0;
#X array file 67320 float 0 black black;
#X coords 0 1 67319 -1 200 140 1;
#X restore 895 640 graph;
#X obj 1499 562 soundfiler;
#X floatatom 1388 564 14 0 0 0 - - -, f 14;
#X obj 1495 778 expr 44100 / $f1;
#X obj 1495 815 phasor~;
#X obj 1495 855 *~;
#X obj 1495 894 tabread4~ file;
#X obj 1495 977 dac~;
#X obj 1495 932 *~;
#X msg 1566 813 0;
#X msg 1451 815 0;
#X obj 1568 662 bng 15 250 50 0 empty empty empty 17 7 0 10 -262144
-1 -1;
#X floatatom 1398 779 12 0 0 0 - - -, f 12;
#X obj 1621 897 vline~;
#X obj 1523 607 bng 15 250 50 0 empty empty empty 17 7 0 10 -262144
-1 -1;
#X floatatom 1706 598 9 0 0 0 - - -, f 9;
#X obj 1586 599 expr $f1 / 44.1;
#X obj 1568 632 del;
#X floatatom 1667 778 5 0 0 0 - - -, f 5;
#X floatatom 1718 777 5 0 0 0 - - -, f 5;
#X floatatom 1718 839 10 0 0 0 - - -, f 10;
#X obj 1718 810 expr $f2 - $f1;
#X obj 1676 946 snapshot~;
#X floatatom 1676 969 5 0 0 0 - - -, f 5;
#X obj 1676 919 metro 100;
#X obj 1676 897 loadbang;
#X obj 1667 638 vsl 15 128 0 1000 0 0 empty empty empty 0 -9 0 10 -262144
-1 -1 0 1;
#X obj 1718 637 vsl 15 128 0 1000 0 0 empty empty empty 0 -9 0 10 -262144
-1 -1 0 1;
#X obj 1751 866 vsl 15 128 0 1 0 0 empty empty empty 0 -9 0 10 -262144
-1 -1 0 1;
#X obj 1568 687 t b b;
#X obj 1621 839 pack 1 f f f;
#X msg 1621 868 \$1 \$2 \, 0 \$3 \$4;
#X obj 896 798 hsl 192 14 0 1 0 0 empty empty empty -2 -8 0 10 -262144
-1 -1 0 1;
#X msg 1499 532 read か.wav file;
#X obj 1193 686 bng 15 250 50 0 empty empty empty 17 7 0 10 -262144
-1 -1;
#X obj 1193 714 metro 50;
#X obj 1193 747 snapshot~;
#X floatatom 1193 783 5 0 0 0 - - -, f 5;
#X obj 1193 820 /;
#X floatatom 1193 857 5 0 0 0 - - -, f 5;
#X connect 0 0 2 0;
#X connect 0 1 1 0;
#X connect 3 0 77 0;
#X connect 4 0 5 0;
#X connect 4 0 10 0;
#X connect 6 0 3 1;
#X connect 7 0 3 1;
#X connect 9 0 8 0;
#X connect 9 0 11 0;
#X connect 10 0 7 0;
#X connect 11 0 6 0;
#X connect 12 0 3 0;
#X connect 13 0 14 0;
#X connect 13 0 15 0;
#X connect 15 0 20 0;
#X connect 15 0 12 0;
#X connect 17 0 19 0;
#X connect 18 0 16 0;
#X connect 18 0 17 0;
#X connect 19 0 3 0;
#X connect 20 0 3 0;
#X connect 22 0 23 0;
#X connect 22 0 28 0;
#X connect 24 0 21 1;
#X connect 25 0 21 1;
#X connect 27 0 26 0;
#X connect 27 0 29 0;
#X connect 28 0 25 0;
#X connect 29 0 24 0;
#X connect 30 0 21 0;
#X connect 31 0 32 0;
#X connect 31 0 79 0;
#X connect 34 0 33 0;
#X connect 34 0 80 0;
#X connect 35 0 21 0;
#X connect 37 0 38 0;
#X connect 37 0 43 0;
#X connect 39 0 36 1;
#X connect 40 0 36 1;
#X connect 42 0 41 0;
#X connect 42 0 44 0;
#X connect 43 0 40 0;
#X connect 44 0 39 0;
#X connect 45 0 36 0;
#X connect 46 0 47 0;
#X connect 46 0 84 0;
#X connect 49 0 48 0;
#X connect 49 0 78 0;
#X connect 50 0 36 0;
#X connect 52 0 53 0;
#X connect 52 0 83 0;
#X connect 54 0 51 1;
#X connect 55 0 51 1;
#X connect 57 0 56 0;
#X connect 57 0 58 0;
#X connect 58 0 54 0;
#X connect 59 0 51 0;
#X connect 60 0 61 0;
#X connect 60 0 81 0;
#X connect 63 0 62 0;
#X connect 63 0 82 0;
#X connect 64 0 51 0;
#X connect 66 0 67 0;
#X connect 66 0 72 0;
#X connect 68 0 65 1;
#X connect 69 0 65 1;
#X connect 71 0 70 0;
#X connect 71 0 73 0;
#X connect 72 0 69 0;
#X connect 73 0 68 0;
#X connect 74 0 21 0;
#X connect 75 0 36 0;
#X connect 76 0 51 0;
#X connect 78 0 50 0;
#X connect 79 0 74 0;
#X connect 79 0 30 0;
#X connect 80 0 35 0;
#X connect 81 0 76 0;
#X connect 81 0 59 0;
#X connect 82 0 64 0;
#X connect 83 0 55 0;
#X connect 84 0 75 0;
#X connect 84 0 45 0;
#X connect 85 0 65 0;
#X connect 86 0 87 0;
#X connect 86 0 91 0;
#X connect 89 0 88 0;
#X connect 89 0 92 0;
#X connect 90 0 65 0;
#X connect 91 0 93 0;
#X connect 91 0 85 0;
#X connect 92 0 90 0;
#X connect 93 0 65 0;
#X connect 96 0 95 0;
#X connect 96 0 99 0;
#X connect 96 1 94 0;
#X connect 96 1 99 1;
#X connect 96 2 97 0;
#X connect 98 0 101 0;
#X connect 98 0 100 0;
#X connect 98 1 102 0;
#X connect 98 1 100 1;
#X connect 98 2 103 0;
#X connect 98 2 100 2;
#X connect 99 0 98 0;
#X connect 100 0 104 0;
#X connect 100 0 105 0;
#X connect 100 0 106 0;
#X connect 100 0 107 0;
#X connect 100 0 108 0;
#X connect 104 0 109 0;
#X connect 104 0 109 1;
#X connect 105 0 109 0;
#X connect 105 0 109 1;
#X connect 106 0 109 0;
#X connect 106 0 109 1;
#X connect 107 0 109 0;
#X connect 107 0 109 1;
#X connect 108 0 109 0;
#X connect 108 0 109 1;
#X connect 111 0 112 0;
#X connect 111 0 113 0;
#X connect 111 0 115 1;
#X connect 111 0 126 0;
#X connect 111 0 148 1;
#X connect 113 0 114 0;
#X connect 113 0 122 0;
#X connect 114 0 115 0;
#X connect 115 0 116 0;
#X connect 115 0 146 0;
#X connect 116 0 118 0;
#X connect 118 0 117 0;
#X connect 118 0 117 1;
#X connect 119 0 114 1;
#X connect 120 0 114 0;
#X connect 121 0 139 0;
#X connect 123 0 118 1;
#X connect 123 0 132 0;
#X connect 124 0 113 0;
#X connect 124 0 140 0;
#X connect 124 0 127 0;
#X connect 126 0 125 0;
#X connect 126 0 127 1;
#X connect 126 0 131 1;
#X connect 127 0 121 0;
#X connect 128 0 140 1;
#X connect 129 0 131 0;
#X connect 129 0 140 2;
#X connect 130 0 140 3;
#X connect 131 0 130 0;
#X connect 132 0 133 0;
#X connect 133 0 138 0;
#X connect 134 0 132 0;
#X connect 135 0 134 0;
#X connect 136 0 128 0;
#X connect 137 0 129 0;
#X connect 139 0 119 0;
#X connect 139 1 120 0;
#X connect 140 0 141 0;
#X connect 141 0 123 0;
#X connect 143 0 111 0;
#X connect 144 0 145 0;
#X connect 145 0 146 0;
#X connect 146 0 147 0;
#X connect 147 0 148 0;
#X connect 148 0 149 0;
#X connect 148 0 142 0;
#X coords 0 1055 1 1054 0 0 0;
