#N canvas 0 0 1920 1055 12;
#X floatatom 163 260 5 0 0 0 - - -, f 5;
#X floatatom 59 260 5 0 0 0 - - -, f 5;
#X obj 105 259 notein;
#X floatatom 211 260 5 0 0 0 - - -, f 5;
#X obj 105 291 list;
#X obj 734 42 vsl 33 267 0 127 0 0 empty empty empty 0 -9 0 10 -262144
-1 -1 6702 1;
#X obj 445 70 hsl 128 15 0 127 0 0 empty empty empty -2 -8 0 10 -262144
-1 -1 0 1;
#X obj 445 124 hsl 128 15 0 127 0 0 empty empty empty -2 -8 0 10 -262144
-1 -1 12700 1;
#X obj 581 187 hsl 128 15 0 127 0 0 empty empty empty -2 -8 0 10 -262144
-1 -1 0 1;
#X obj 581 242 hsl 128 15 0 127 0 0 empty empty empty -2 -8 0 10 -262144
-1 -1 12700 1;
#X obj 581 298 hsl 128 15 0 127 0 0 empty empty empty -2 -8 0 10 -262144
-1 -1 0 1;
#X text 445 41 start;
#X text 445 94 end;
#X text 581 268 exponent > 1;
#X text 581 159 fade out;
#X text 581 213 rational exponent;
#X obj 311 186 hsl 128 15 0 127 0 0 empty empty empty -2 -8 0 10 -262144
-1 -1 0 1;
#X obj 311 241 hsl 128 15 0 127 0 0 empty empty empty -2 -8 0 10 -262144
-1 -1 12700 1;
#X obj 311 297 hsl 128 15 0 127 0 0 empty empty empty -2 -8 0 10 -262144
-1 -1 0 1;
#X text 311 267 exponent > 1;
#X text 311 212 rational exponent;
#X text 311 158 fade in;
#X obj 105 345 pack 0 0 0 0 0 0 0 0 0 0 0 0;
#X obj 532 95 ii 127;
#X obj 734 13 ii 32;
#X obj 492 211 ii 127;
#X obj 103 498 wavefiles;
#X obj 176 498 wavefiles;
#X obj 249 498 wavefiles;
#X obj 322 498 wavefiles;
#X obj 102 669 dac~;
#X obj 105 318 poly 4;
#X obj 105 371 route 1 2 3 4;
#X connect 2 0 1 0;
#X connect 2 0 4 0;
#X connect 2 1 0 0;
#X connect 2 1 4 1;
#X connect 2 2 3 0;
#X connect 4 0 31 0;
#X connect 5 0 22 11;
#X connect 6 0 22 3;
#X connect 7 0 22 4;
#X connect 8 0 22 8;
#X connect 9 0 22 9;
#X connect 10 0 22 10;
#X connect 16 0 22 5;
#X connect 17 0 22 6;
#X connect 18 0 22 7;
#X connect 22 0 32 0;
#X connect 23 0 7 0;
#X connect 24 0 5 0;
#X connect 25 0 9 0;
#X connect 25 0 17 0;
#X connect 26 0 30 0;
#X connect 26 0 30 1;
#X connect 27 0 30 0;
#X connect 27 0 30 1;
#X connect 28 0 30 0;
#X connect 28 0 30 1;
#X connect 29 0 30 0;
#X connect 29 0 30 1;
#X connect 31 0 22 0;
#X connect 31 1 22 1;
#X connect 31 2 22 2;
#X connect 32 0 26 0;
#X connect 32 1 27 0;
#X connect 32 2 28 0;
#X connect 32 3 29 0;
#X coords 0 1055 1 1054 0 0 0;
