#N canvas 0 0 1920 1055 12;
#X floatatom 213 552 5 0 0 0 - - -, f 5;
#X floatatom 138 563 5 0 0 0 - - -, f 5;
#X obj 198 509 notein;
#X floatatom 302 547 5 0 0 0 - - -, f 5;
#X obj 200 629 poly 5;
#X obj 200 602 list;
#X obj 236 729 clone い 6;
#X obj 324 731 clone お 6;
#X obj 408 734 clone う 6;
#X obj 149 726 clone え 6;
#X obj 36 730 clone あ 6, f 11;
#X obj 136 819 dac~;
#X msg 719 79 open か.wav;
#X msg 499 135 open く.wav;
#X msg 777 114 open け.wav;
#X msg 550 61 open こ.wav;
#X msg 636 116 open き.wav;
#X obj 906 36 soundfiler;
#X floatatom 992 38 5 0 0 0 - - -, f 5;
#N canvas 0 0 450 300 (subpatch) 0;
#X array audiofileke 67720 float 0 black black;
#X coords 0 1 67719 -1 200 140 1;
#X restore 1306 2 graph;
#X obj 910 908 *~;
#X obj 910 364 vline~;
#X obj 1311 182 hsl 194 16 0 67720 0 0 empty empty empty -2 -8 0 10
-262144 -1 -1 0 1;
#X msg 906 89 range 0 \$1;
#X text 1469 155 start;
#X obj 1310 238 hsl 194 16 0 67720 0 0 empty empty empty -2 -8 0 10
-262144 -1 -1 19300 1;
#X text 1484 210 end;
#X obj 991 216 pack 44.1 f f;
#X obj 991 248 expr abs($f3 - $f2) / $f1;
#X floatatom 1083 358 5 0 0 0 - - -, f 5;
#X obj 991 166 bng 15 250 50 0 empty empty empty 17 7 0 10 -262144
-1 -1;
#X obj 910 301 pack f f f f;
#X floatatom 1402 157 8 0 0 0 - - -, f 8;
#X floatatom 1401 211 8 0 0 0 - - -, f 8;
#X msg 910 333 \$2 \, \$3 \$4;
#X obj 910 211 metro;
#X obj 910 189 bng 15 250 50 0 empty empty empty 17 7 0 10 -262144
-1 -1;
#X msg 934 188 0, f 2;
#X obj 910 238 bng 15 250 50 0 empty empty empty 17 7 0 10 -262144
-1 -1;
#N canvas 0 0 450 300 (subpatch) 0;
#X array fadeke 73709 float 2 black black;
#X coords 0 1 73709 0 200 140 1;
#X restore 1310 271 graph;
#X msg 1132 389 range 0 \$1;
#X obj 1217 361 bng 15 250 50 0 empty empty empty 17 7 0 10 -262144
-1 -1;
#X obj 1218 390 t b b;
#X obj 940 619 vline~;
#X obj 1300 759 vline~;
#X obj 940 650 pow~ 1;
#X obj 1300 790 pow~ 1;
#X obj 1200 768 snapshot~;
#X floatatom 1200 791 5 0 0 0 - - -, f 5;
#X obj 1275 681 vsl 15 128 0 1 0 0 empty empty empty 0 -9 0 10 -262144
-1 -1 0 1;
#X obj 1200 717 bng 15 250 50 0 empty empty empty 17 7 0 10 -262144
-1 -1;
#X obj 1425 769 snapshot~;
#X floatatom 1425 792 5 0 0 0 - - -, f 5;
#X obj 1425 742 metro 100;
#X obj 1498 679 vsl 15 128 0 1 0 0 empty empty empty 0 -9 0 10 -262144
-1 -1 0 1;
#X obj 1425 717 bng 15 250 50 0 empty empty empty 17 7 0 10 -262144
-1 -1;
#X floatatom 940 435 5 0 0 0 - - -, f 5;
#X floatatom 1333 436 5 0 0 0 - - -, f 5;
#X obj 941 479 expr $f1 - ($f2 + $f3);
#X floatatom 1137 478 5 0 0 0 - - -, f 5;
#X obj 940 542 pack f f f;
#X msg 940 587 1 \$2 \, 0 0 \$2;
#X msg 1300 730 1 0 \$2 \, 0 \$3 \$1;
#X obj 940 512 +;
#X obj 956 769 snapshot~;
#X floatatom 956 792 5 0 0 0 - - -, f 5;
#X obj 956 742 metro 100;
#X obj 1034 680 vsl 15 128 0 1 0 0 empty empty empty 0 -9 0 10 -262144
-1 -1 0 1;
#X obj 956 720 bng 15 250 50 0 empty empty empty 17 7 0 10 -262144
-1 -1;
#X obj 910 852 *~;
#X obj 1132 359 / 2;
#X floatatom 1170 359 5 0 0 0 - - -, f 5;
#X obj 992 89 * 1.08844;
#X floatatom 1067 89 9 0 0 0 - - -, f 9;
#X obj 992 66 bng 15 250 50 0 empty empty empty 17 7 0 10 -262144 -1
-1;
#X obj 1378 439 hsl 128 15 0 767.8 0 0 empty empty empty -2 -8 0 10
-262144 -1 -1 12700 1;
#X obj 988 437 hsl 128 15 0 767.8 0 0 empty empty empty -2 -8 0 10
-262144 -1 -1 12700 1;
#X obj 1137 541 hsl 128 15 0 1 0 0 empty empty empty -2 -8 0 10 -262144
-1 -1 0 1;
#X obj 1137 624 hsl 128 15 0 10 0 0 empty empty empty -2 -8 0 10 -262144
-1 -1 0 1;
#X floatatom 1233 649 5 0 0 0 - - -, f 5;
#X floatatom 1232 566 5 0 0 0 - - -, f 5;
#X obj 1059 595 f;
#X obj 1091 595 f;
#X obj 1059 623 +;
#X floatatom 1091 624 5 0 0 0 - - -, f 5;
#X obj 1059 567 t b b;
#X obj 1111 568 bng 15 250 50 0 empty empty empty 17 7 0 10 -262144
-1 -1;
#X obj 1059 514 bng 15 250 50 0 empty empty empty 17 7 0 10 -262144
-1 -1;
#X msg 1089 513 stop;
#X text 1182 595 exponent > 1;
#X text 1148 512 rational exponent;
#X obj 1059 680 line;
#X floatatom 1102 679 10 0 0 0 - - -, f 10;
#X obj 1059 653 pack f 100;
#X obj 1378 540 hsl 128 15 0 1 0 0 empty empty empty -2 -8 0 10 -262144
-1 -1 0 1;
#X obj 1378 623 hsl 128 15 0 10 0 0 empty empty empty -2 -8 0 10 -262144
-1 -1 12700 1;
#X floatatom 1474 649 5 0 0 0 - - -, f 5;
#X floatatom 1474 564 5 0 0 0 - - -, f 5;
#X obj 1300 594 f;
#X obj 1332 594 f;
#X obj 1300 622 +;
#X floatatom 1332 623 5 0 0 0 - - -, f 5;
#X obj 1300 566 t b b;
#X obj 1351 566 bng 15 250 50 0 empty empty empty 17 7 0 10 -262144
-1 -1;
#X obj 1300 513 bng 15 250 50 0 empty empty empty 17 7 0 10 -262144
-1 -1;
#X msg 1330 512 stop;
#X text 1423 594 exponent > 1;
#X text 1389 511 rational exponent;
#X obj 1300 679 line;
#X floatatom 1343 678 10 0 0 0 - - -, f 10;
#X obj 1300 652 pack f 100;
#X obj 1040 851 hsl 370 47 0 1 0 0 empty empty empty -2 -8 0 10 -262144
-1 -1 7352 1;
#X obj 955 878 line;
#X floatatom 955 911 10 0 0 0 - - -, f 10;
#X obj 955 851 pack f 100;
#X obj 1161 3 bng 136 250 50 0 empty empty empty 17 7 0 10 -262144
-1 -1;
#X obj 1300 538 metro 100;
#X obj 1059 539 metro 100;
#X obj 1472 796 bng 15 250 50 0 empty empty empty 17 7 0 10 -262144
-1 -1;
#X obj 1008 794 bng 15 250 50 0 empty empty empty 17 7 0 10 -262144
-1 -1;
#X obj 1251 794 bng 15 250 50 0 empty empty empty 17 7 0 10 -262144
-1 -1;
#X msg 1456 717 stop;
#X msg 988 717 stop;
#X msg 1231 715 stop;
#X obj 1200 741 metro 100;
#X obj 1214 220 f;
#X obj 1214 171 bng 15 250 50 0 empty empty empty 17 7 0 10 -262144
-1 -1;
#X obj 1214 193 del 100;
#X text 1136 435 fadein;
#X text 1458 468 fadeout;
#X obj 1431 855 bng 15 250 50 0 empty empty empty 17 7 0 10 -262144
-1 -1;
#X obj 1431 878 t b b b b b;
#X text 1472 853 panic;
#X obj 1193 435 bng 15 250 50 0 empty empty empty 17 7 0 10 -262144
-1 -1;
#X obj 1193 462 t b b b b b b b b;
#X obj 1255 433 loadbang;
#X obj 1214 250 ii;
#X obj 1378 478 ii 1;
#X obj 1040 824 ii 0.25;
#X obj 1580 80 spigot;
#X obj 1683 107 sel 0;
#X obj 865 960 dac~;
#X obj 1580 108 select 74;
#X msg 906 -10 read -resize け.wav audiofileke, f 29;
#X obj 910 394 tabread4~ audiofileke;
#X obj 1074 793 tabwrite~ fadeke;
#X msg 992 117 \; fadeke resize \$1;
#X obj 1683 257 vline~;
#X obj 1589 229 snapshot~;
#X floatatom 1589 252 5 0 0 0 - - -, f 5;
#X obj 1589 202 metro 100;
#X obj 1661 146 vsl 15 128 0 1 0 0 empty empty empty 0 -9 0 10 -262144
-1 -1 0 1;
#X obj 1589 177 bng 15 250 50 0 empty empty empty 17 7 0 10 -262144
-1 -1;
#X obj 1636 256 bng 15 250 50 0 empty empty empty 17 7 0 10 -262144
-1 -1;
#X msg 1620 177 stop;
#X obj 1658 109 bng 15 250 50 0 empty empty empty 17 7 0 10 -262144
-1 -1;
#X obj 991 188 t b b;
#X obj 1557 113 bng 15 250 50 0 empty empty empty 17 7 0 10 -262144
-1 -1;
#X obj 910 881 *~;
#X obj 847 344 vsl 33 267 0 127 0 0 empty empty empty 0 -9 0 10 -262144
-1 -1 5300 1;
#X obj 558 372 hsl 128 15 0 127 0 0 empty empty empty -2 -8 0 10 -262144
-1 -1 0 1;
#X obj 558 426 hsl 128 15 0 127 0 0 empty empty empty -2 -8 0 10 -262144
-1 -1 12700 1;
#X obj 694 489 hsl 128 15 0 127 0 0 empty empty empty -2 -8 0 10 -262144
-1 -1 12700 1;
#X obj 694 544 hsl 128 15 0 127 0 0 empty empty empty -2 -8 0 10 -262144
-1 -1 0 1;
#X obj 694 600 hsl 128 15 0 127 0 0 empty empty empty -2 -8 0 10 -262144
-1 -1 12700 1;
#X text 558 343 start;
#X text 558 396 end;
#X text 694 570 exponent > 1;
#X text 694 461 fade out;
#X text 694 515 rational exponent;
#X obj 424 488 hsl 128 15 0 127 0 0 empty empty empty -2 -8 0 10 -262144
-1 -1 12700 1;
#X obj 424 543 hsl 128 15 0 127 0 0 empty empty empty -2 -8 0 10 -262144
-1 -1 0 1;
#X obj 424 599 hsl 128 15 0 127 0 0 empty empty empty -2 -8 0 10 -262144
-1 -1 0 1;
#X text 424 569 exponent > 1;
#X text 424 514 rational exponent;
#X text 424 460 fade in;
#X obj 200 656 pack 0 0 0 0 0 0 0 0 0 0 0 0;
#X obj 154 288 rescale;
#X obj 114 206 hsl 128 15 0 127 0 0 empty empty empty -2 -8 0 10 -262144
-1 -1 0 1;
#X obj 108 363 hsl 128 15 0 1270 0 0 empty empty empty -2 -8 0 10 -262144
-1 -1 0 1;
#X floatatom 79 398 5 0 0 0 - - -, f 5;
#X floatatom 86 241 5 0 0 0 - - -, f 5;
#X msg 176 240 0;
#X msg 229 241 127;
#X msg 274 243 0;
#X msg 322 245 1270;
#X obj 292 194 bng 15 250 50 0 empty empty empty 17 7 0 10 -262144
-1 -1;
#X obj 1588 330 rescale;
#X msg 1603 302 0;
#X msg 1637 304 127;
#X msg 1673 304 0;
#X msg 1711 304 \$1;
#X obj 1800 590 loadbang;
#X obj 1591 390 rescale;
#X msg 1605 360 0;
#X msg 1639 362 127;
#X msg 1675 362 0;
#X msg 1713 362 \$1;
#X obj 1582 461 rescale;
#X msg 1596 431 0;
#X msg 1630 431 127;
#X msg 1665 431 0;
#X msg 1699 431 \$1;
#X msg 1730 228 1 10;
#X msg 1683 228 0 10;
#X obj 1582 542 rescale;
#X msg 1596 512 0;
#X msg 1630 512 127;
#X msg 1665 512 0;
#X msg 1699 512 1;
#X obj 1582 620 rescale;
#X msg 1596 590 0;
#X msg 1630 590 127;
#X msg 1665 590 0;
#X msg 1699 590 10;
#X obj 1575 701 rescale;
#X msg 1589 671 0;
#X msg 1623 671 127;
#X msg 1658 671 0;
#X msg 1692 671 \$1;
#X obj 1575 782 rescale;
#X msg 1589 752 0;
#X msg 1623 752 127;
#X msg 1658 752 0;
#X msg 1692 752 1;
#X obj 1575 860 rescale;
#X msg 1589 830 0;
#X msg 1623 830 127;
#X msg 1658 830 0;
#X msg 1692 830 10;
#X obj 1602 16 unpack f f f f f f f f f f f f;
#X obj 1581 930 rescale;
#X msg 1595 900 0;
#X msg 1629 900 127;
#X msg 1664 900 0;
#X msg 1698 900 1;
#X connect 2 0 1 0;
#X connect 2 0 5 0;
#X connect 2 1 0 0;
#X connect 2 1 5 1;
#X connect 2 2 3 0;
#X connect 4 0 176 0;
#X connect 4 1 176 1;
#X connect 4 2 176 2;
#X connect 5 0 4 0;
#X connect 6 0 11 0;
#X connect 6 0 11 1;
#X connect 7 0 11 0;
#X connect 7 0 11 1;
#X connect 8 0 11 0;
#X connect 8 0 11 1;
#X connect 9 0 11 0;
#X connect 9 0 11 1;
#X connect 10 0 11 0;
#X connect 10 0 11 1;
#X connect 17 0 18 0;
#X connect 17 0 23 0;
#X connect 17 0 72 0;
#X connect 17 0 126 0;
#X connect 17 0 125 1;
#X connect 20 0 141 0;
#X connect 20 0 141 1;
#X connect 21 0 144 0;
#X connect 22 0 32 0;
#X connect 22 0 27 1;
#X connect 23 0 22 0;
#X connect 23 0 25 0;
#X connect 25 0 33 0;
#X connect 25 0 27 2;
#X connect 27 0 28 0;
#X connect 27 0 31 0;
#X connect 28 0 29 0;
#X connect 28 0 31 3;
#X connect 28 0 35 1;
#X connect 28 0 58 0;
#X connect 28 0 70 0;
#X connect 30 0 156 0;
#X connect 31 0 34 0;
#X connect 34 0 21 0;
#X connect 35 0 38 0;
#X connect 35 0 30 0;
#X connect 36 0 35 0;
#X connect 37 0 35 0;
#X connect 40 0 75 0;
#X connect 40 0 76 0;
#X connect 41 0 42 0;
#X connect 42 0 145 0;
#X connect 42 1 75 0;
#X connect 42 1 76 0;
#X connect 43 0 45 0;
#X connect 44 0 46 0;
#X connect 45 0 47 0;
#X connect 45 0 64 0;
#X connect 45 0 69 1;
#X connect 45 0 145 0;
#X connect 46 0 64 0;
#X connect 46 0 69 1;
#X connect 46 0 51 0;
#X connect 46 0 145 0;
#X connect 47 0 48 0;
#X connect 48 0 49 0;
#X connect 50 0 124 0;
#X connect 51 0 52 0;
#X connect 52 0 54 0;
#X connect 53 0 51 0;
#X connect 53 0 118 0;
#X connect 55 0 53 0;
#X connect 58 0 59 0;
#X connect 58 0 63 0;
#X connect 60 0 61 0;
#X connect 60 0 62 0;
#X connect 61 0 43 0;
#X connect 62 0 44 0;
#X connect 63 0 60 0;
#X connect 64 0 65 0;
#X connect 65 0 67 0;
#X connect 66 0 64 0;
#X connect 66 0 119 0;
#X connect 68 0 66 0;
#X connect 69 0 158 0;
#X connect 70 0 71 0;
#X connect 70 0 40 0;
#X connect 70 0 202 0;
#X connect 70 0 219 0;
#X connect 72 0 73 0;
#X connect 72 0 146 0;
#X connect 74 0 72 0;
#X connect 75 0 58 2;
#X connect 75 0 60 2;
#X connect 75 0 57 0;
#X connect 76 0 56 0;
#X connect 76 0 60 1;
#X connect 76 0 63 1;
#X connect 76 0 58 1;
#X connect 77 0 80 0;
#X connect 77 0 81 1;
#X connect 78 0 79 0;
#X connect 78 0 82 1;
#X connect 81 0 83 0;
#X connect 82 0 83 1;
#X connect 83 0 84 0;
#X connect 83 0 93 0;
#X connect 85 0 81 0;
#X connect 85 1 82 0;
#X connect 87 0 117 0;
#X connect 88 0 117 0;
#X connect 91 0 92 0;
#X connect 91 0 45 1;
#X connect 93 0 91 0;
#X connect 94 0 97 0;
#X connect 94 0 98 1;
#X connect 95 0 96 0;
#X connect 95 0 99 1;
#X connect 98 0 100 0;
#X connect 99 0 100 1;
#X connect 100 0 101 0;
#X connect 100 0 110 0;
#X connect 102 0 98 0;
#X connect 102 1 99 0;
#X connect 104 0 116 0;
#X connect 105 0 116 0;
#X connect 108 0 109 0;
#X connect 108 0 46 1;
#X connect 110 0 108 0;
#X connect 111 0 114 0;
#X connect 112 0 20 1;
#X connect 112 0 113 0;
#X connect 114 0 112 0;
#X connect 115 0 30 0;
#X connect 116 0 103 0;
#X connect 116 0 102 0;
#X connect 117 0 86 0;
#X connect 117 0 85 0;
#X connect 121 0 53 0;
#X connect 122 0 66 0;
#X connect 123 0 124 0;
#X connect 124 0 47 0;
#X connect 124 0 120 0;
#X connect 125 0 136 0;
#X connect 126 0 127 0;
#X connect 127 0 125 0;
#X connect 130 0 131 0;
#X connect 131 0 122 0;
#X connect 131 1 123 0;
#X connect 131 2 88 0;
#X connect 131 3 105 0;
#X connect 131 4 121 0;
#X connect 133 0 134 0;
#X connect 134 0 68 0;
#X connect 134 1 50 0;
#X connect 134 2 55 0;
#X connect 134 3 87 0;
#X connect 134 4 104 0;
#X connect 134 6 143 0;
#X connect 135 0 134 0;
#X connect 136 0 25 0;
#X connect 136 0 191 0;
#X connect 136 0 197 0;
#X connect 137 0 77 0;
#X connect 137 0 94 0;
#X connect 138 0 111 0;
#X connect 139 0 142 0;
#X connect 140 0 155 0;
#X connect 140 0 204 0;
#X connect 142 0 115 0;
#X connect 142 0 157 0;
#X connect 142 0 203 0;
#X connect 143 0 17 0;
#X connect 144 0 69 0;
#X connect 147 0 148 0;
#X connect 147 0 158 1;
#X connect 148 0 149 0;
#X connect 149 0 151 0;
#X connect 150 0 148 0;
#X connect 150 0 153 0;
#X connect 152 0 150 0;
#X connect 154 0 150 0;
#X connect 156 0 27 0;
#X connect 156 1 41 0;
#X connect 158 0 20 0;
#X connect 159 0 176 11;
#X connect 160 0 176 3;
#X connect 161 0 176 4;
#X connect 162 0 176 8;
#X connect 163 0 176 9;
#X connect 164 0 176 10;
#X connect 170 0 176 5;
#X connect 171 0 176 6;
#X connect 172 0 176 7;
#X connect 176 0 6 0;
#X connect 176 0 7 0;
#X connect 176 0 8 0;
#X connect 176 0 9 0;
#X connect 176 0 10 0;
#X connect 176 0 230 0;
#X connect 177 0 179 0;
#X connect 178 0 181 0;
#X connect 178 0 177 0;
#X connect 179 0 180 0;
#X connect 182 0 177 1;
#X connect 183 0 177 2;
#X connect 184 0 177 3;
#X connect 185 0 177 4;
#X connect 186 0 182 0;
#X connect 186 0 183 0;
#X connect 186 0 184 0;
#X connect 186 0 185 0;
#X connect 187 0 22 0;
#X connect 188 0 187 1;
#X connect 189 0 187 2;
#X connect 190 0 187 3;
#X connect 191 0 187 4;
#X connect 192 0 152 0;
#X connect 192 0 190 0;
#X connect 192 0 189 0;
#X connect 192 0 188 0;
#X connect 192 0 194 0;
#X connect 192 0 195 0;
#X connect 192 0 196 0;
#X connect 192 0 201 0;
#X connect 192 0 200 0;
#X connect 192 0 199 0;
#X connect 192 0 206 0;
#X connect 192 0 207 0;
#X connect 192 0 208 0;
#X connect 192 0 209 0;
#X connect 192 0 211 0;
#X connect 192 0 212 0;
#X connect 192 0 213 0;
#X connect 192 0 214 0;
#X connect 192 0 216 0;
#X connect 192 0 217 0;
#X connect 192 0 218 0;
#X connect 192 0 221 0;
#X connect 192 0 222 0;
#X connect 192 0 223 0;
#X connect 192 0 224 0;
#X connect 192 0 226 0;
#X connect 192 0 229 0;
#X connect 192 0 228 0;
#X connect 192 0 227 0;
#X connect 192 0 232 0;
#X connect 192 0 235 0;
#X connect 192 0 234 0;
#X connect 192 0 233 0;
#X connect 193 0 25 0;
#X connect 194 0 193 1;
#X connect 195 0 193 2;
#X connect 196 0 193 3;
#X connect 197 0 193 4;
#X connect 198 0 76 0;
#X connect 199 0 198 1;
#X connect 200 0 198 2;
#X connect 201 0 198 3;
#X connect 202 0 198 4;
#X connect 203 0 147 0;
#X connect 204 0 147 0;
#X connect 205 0 77 0;
#X connect 206 0 205 1;
#X connect 207 0 205 2;
#X connect 208 0 205 3;
#X connect 209 0 205 4;
#X connect 210 0 78 0;
#X connect 211 0 210 1;
#X connect 212 0 210 2;
#X connect 213 0 210 3;
#X connect 214 0 210 4;
#X connect 215 0 75 0;
#X connect 216 0 215 1;
#X connect 217 0 215 2;
#X connect 218 0 215 3;
#X connect 219 0 215 4;
#X connect 220 0 94 0;
#X connect 221 0 220 1;
#X connect 222 0 220 2;
#X connect 223 0 220 3;
#X connect 224 0 220 4;
#X connect 225 0 95 0;
#X connect 226 0 225 1;
#X connect 227 0 225 2;
#X connect 228 0 225 3;
#X connect 229 0 225 4;
#X connect 230 1 139 0;
#X connect 230 2 139 1;
#X connect 230 2 140 0;
#X connect 230 3 187 0;
#X connect 230 4 193 0;
#X connect 230 5 198 0;
#X connect 230 6 205 0;
#X connect 230 7 210 0;
#X connect 230 8 215 0;
#X connect 230 9 220 0;
#X connect 230 10 225 0;
#X connect 230 11 231 0;
#X connect 231 0 111 0;
#X connect 232 0 231 1;
#X connect 233 0 231 2;
#X connect 234 0 231 3;
#X connect 235 0 231 4;
#X coords 0 1055 1 1054 0 0 0;
