#N canvas 960 0 960 1055 10;
#X obj 140 112 inlet;
#X obj 200 112 inlet;
#X obj 254 112 inlet;
#X obj 314 112 inlet;
#X obj 354 112 inlet;
#X obj 140 308 outlet;
#X text 207 96 lo;
#X text 261 96 hi;
#X text 321 96 lo;
#X text 361 96 hi;
#X obj 200 134 f \$1;
#X obj 254 134 f \$2;
#X obj 314 134 f \$3;
#X obj 354 134 f \$4;
#X obj 140 173 -;
#X obj 219 185 -;
#X obj 200 156 t f b f;
#X obj 140 202 /;
#X text 225 79 from;
#X text 338 77 to;
#X obj 140 246 *;
#X obj 140 274 +;
#X obj 333 185 -;
#X obj 314 156 t f b f;
#X text 24 176 subtract offset 1;
#X text 26 203 divide by range 1;
#X text 14 250 multiply by range 2;
#X text 56 274 add offset 2;
#X obj 430 95 loadbang;
#X obj 430 117 t b b b b;
#X obj 140 134 f;
#X text 390 76 initialize from arguments;
#X connect 0 0 30 0;
#X connect 1 0 10 0;
#X connect 2 0 11 0;
#X connect 3 0 12 0;
#X connect 4 0 13 0;
#X connect 10 0 16 0;
#X connect 11 0 15 0;
#X connect 12 0 23 0;
#X connect 13 0 22 0;
#X connect 14 0 17 0;
#X connect 15 0 17 1;
#X connect 16 0 14 1;
#X connect 16 1 15 0;
#X connect 16 2 15 1;
#X connect 17 0 20 0;
#X connect 20 0 21 0;
#X connect 21 0 5 0;
#X connect 22 0 20 1;
#X connect 23 0 21 1;
#X connect 23 1 22 0;
#X connect 23 2 22 1;
#X connect 28 0 29 0;
#X connect 29 0 10 0;
#X connect 29 1 11 0;
#X connect 29 2 12 0;
#X connect 29 3 13 0;
#X connect 30 0 14 0;
