#N canvas 0 0 1920 1055 12;
#X obj 747 195 inlet;
#X obj 48 755 outlet~;
#X obj 99 133 あ;
#X obj 231 278 か;
#X obj 231 309 き;
#X obj 99 236 え;
#X obj 231 342 く;
#X obj 99 166 い;
#X obj 231 373 け;
#X obj 99 267 お;
#X obj 231 406 こ;
#X obj 99 201 う;
#X obj 279 311 が;
#X obj 279 436 ご;
#X obj 279 406 げ;
#X obj 279 376 ぐ;
#X obj 279 342 ぎ;
#X obj 330 478 そ;
#X obj 330 443 せ;
#X obj 330 345 さ;
#X obj 330 380 し;
#X obj 330 410 す;
#X obj 385 384 ざ;
#X obj 385 415 じ;
#X obj 385 443 ず;
#X obj 385 475 ぜ;
#X obj 385 505 ぞ;
#X obj 439 416 た;
#X obj 439 447 ち;
#X obj 439 480 つ;
#X obj 439 510 て;
#X obj 439 539 と;
#X obj 496 447 だ;
#X obj 496 474 ぢ;
#X obj 496 501 づ;
#X obj 496 529 で;
#X obj 496 554 ど;
#X obj 550 479 な;
#X obj 550 505 に;
#X obj 550 529 ぬ;
#X obj 550 555 ね;
#X obj 550 580 の;
#X obj 597 510 は;
#X obj 597 536 ひ;
#X obj 597 560 ふ;
#X obj 597 586 へ;
#X obj 597 611 ほ;
#X obj 649 541 ば;
#X obj 649 567 び;
#X obj 649 591 ぶ;
#X obj 649 617 べ;
#X obj 649 642 ぼ;
#X obj 701 571 ぱ;
#X obj 701 597 ぴ;
#X obj 701 621 ぷ;
#X obj 701 647 ぺ;
#X obj 701 672 ぽ;
#X obj 748 598 ま;
#X obj 748 624 み;
#X obj 748 648 む;
#X obj 748 674 め;
#X obj 748 699 も;
#X obj 792 625 ら;
#X obj 792 651 り;
#X obj 792 675 る;
#X obj 792 701 れ;
#X obj 792 726 ろ;
#X obj 839 742 ん;
#X obj 928 471 や;
#X obj 928 504 ゆ;
#X obj 928 539 よ;
#X obj 879 540 わ;
#X obj 879 573 を;
#X connect 0 0 2 0;
#X connect 0 0 3 0;
#X connect 0 0 4 0;
#X connect 0 0 5 0;
#X connect 0 0 6 0;
#X connect 0 0 7 0;
#X connect 0 0 8 0;
#X connect 0 0 9 0;
#X connect 0 0 10 0;
#X connect 0 0 11 0;
#X connect 0 0 12 0;
#X connect 0 0 16 0;
#X connect 0 0 15 0;
#X connect 0 0 14 0;
#X connect 0 0 13 0;
#X connect 0 0 19 0;
#X connect 0 0 21 0;
#X connect 0 0 20 0;
#X connect 0 0 18 0;
#X connect 0 0 17 0;
#X connect 0 0 22 0;
#X connect 0 0 26 0;
#X connect 0 0 25 0;
#X connect 0 0 24 0;
#X connect 0 0 23 0;
#X connect 0 0 27 0;
#X connect 0 0 31 0;
#X connect 0 0 30 0;
#X connect 0 0 29 0;
#X connect 0 0 28 0;
#X connect 0 0 32 0;
#X connect 0 0 36 0;
#X connect 0 0 35 0;
#X connect 0 0 34 0;
#X connect 0 0 33 0;
#X connect 0 0 37 0;
#X connect 0 0 41 0;
#X connect 0 0 40 0;
#X connect 0 0 39 0;
#X connect 0 0 38 0;
#X connect 0 0 42 0;
#X connect 0 0 72 0;
#X connect 0 0 71 0;
#X connect 0 0 70 0;
#X connect 0 0 69 0;
#X connect 0 0 68 0;
#X connect 0 0 67 0;
#X connect 0 0 66 0;
#X connect 0 0 65 0;
#X connect 0 0 64 0;
#X connect 0 0 63 0;
#X connect 0 0 62 0;
#X connect 0 0 61 0;
#X connect 0 0 60 0;
#X connect 0 0 59 0;
#X connect 0 0 58 0;
#X connect 0 0 57 0;
#X connect 0 0 56 0;
#X connect 0 0 55 0;
#X connect 0 0 54 0;
#X connect 0 0 53 0;
#X connect 0 0 52 0;
#X connect 0 0 51 0;
#X connect 0 0 50 0;
#X connect 0 0 49 0;
#X connect 0 0 48 0;
#X connect 0 0 47 0;
#X connect 0 0 46 0;
#X connect 0 0 45 0;
#X connect 0 0 44 0;
#X connect 0 0 43 0;
#X connect 2 0 1 0;
#X connect 3 0 1 0;
#X connect 4 0 1 0;
#X connect 5 0 1 0;
#X connect 6 0 1 0;
#X connect 7 0 1 0;
#X connect 8 0 1 0;
#X connect 9 0 1 0;
#X connect 10 0 1 0;
#X connect 11 0 1 0;
#X connect 12 0 1 0;
#X connect 13 0 1 0;
#X connect 14 0 1 0;
#X connect 15 0 1 0;
#X connect 16 0 1 0;
#X connect 17 0 1 0;
#X connect 18 0 1 0;
#X connect 19 0 1 0;
#X connect 20 0 1 0;
#X connect 21 0 1 0;
#X connect 22 0 1 0;
#X connect 23 0 1 0;
#X connect 24 0 1 0;
#X connect 25 0 1 0;
#X connect 26 0 1 0;
#X connect 27 0 1 0;
#X connect 28 0 1 0;
#X connect 29 0 1 0;
#X connect 30 0 1 0;
#X connect 31 0 1 0;
#X connect 32 0 1 0;
#X connect 33 0 1 0;
#X connect 34 0 1 0;
#X connect 35 0 1 0;
#X connect 36 0 1 0;
#X connect 37 0 1 0;
#X connect 38 0 1 0;
#X connect 39 0 1 0;
#X connect 40 0 1 0;
#X connect 41 0 1 0;
#X connect 42 0 1 0;
#X connect 43 0 1 0;
#X connect 44 0 1 0;
#X connect 45 0 1 0;
#X connect 46 0 1 0;
#X connect 47 0 1 0;
#X connect 48 0 1 0;
#X connect 49 0 1 0;
#X connect 50 0 1 0;
#X connect 51 0 1 0;
#X connect 52 0 1 0;
#X connect 53 0 1 0;
#X connect 54 0 1 0;
#X connect 55 0 1 0;
#X connect 56 0 1 0;
#X connect 57 0 1 0;
#X connect 58 0 1 0;
#X connect 59 0 1 0;
#X connect 60 0 1 0;
#X connect 61 0 1 0;
#X connect 62 0 1 0;
#X connect 63 0 1 0;
#X connect 64 0 1 0;
#X connect 65 0 1 0;
#X connect 66 0 1 0;
#X connect 67 0 1 0;
#X connect 68 0 1 0;
#X connect 69 0 1 0;
#X connect 70 0 1 0;
#X connect 71 0 1 0;
#X connect 72 0 1 0;
