#N canvas 960 0 960 1055 12;
#X obj 323 264 bng 15 250 50 0 empty empty empty 17 7 0 10 -262144
-1 -1;
#X obj 421 235 sel 0;
#X obj 399 238 bng 15 250 50 0 empty empty empty 17 7 0 10 -262144
-1 -1;
#X obj 347 205 unpack;
#X obj 347 261 sel 48;
#X obj 347 233 spigot;
#X obj 358 394 value;
#X msg 347 291 48;
#X msg 420 263 0;
#X obj 194 202 bng 15 250 50 0 empty empty empty 17 7 0 10 -262144
-1 -1;
#X obj 194 224 value;
#X floatatom 150 225 5 0 0 0 - - -, f 5;
#X obj 194 253 sel 48;
#X obj 174 255 bng 15 250 50 0 empty empty empty 17 7 0 10 -262144
-1 -1;
#X msg 166 287 1;
#X obj 116 350 spigot;
#X obj 66 238 tgl 15 0 empty empty empty 0 -6 0 8 -262144 -1 -1 0 1
;
#X obj 66 258 metro 200;
#X obj 66 280 f;
#X obj 93 280 + 1;
#X floatatom 66 388 5 0 0 0 - - -, f 5;
#X obj 156 406 sel 60;
#X obj 135 409 bng 15 250 50 0 empty empty empty 17 7 0 10 -262144
-1 -1;
#X obj 380 347 spigot;
#X msg 272 294 0;
#X msg 447 313 1;
#X obj 223 525 readsf~;
#X msg 223 494 start;
#X msg 271 493 stop;
#X obj 228 557 dac~;
#X msg 138 494 open く.wav;
#X obj 250 79 inlet;
#X msg 349 83 48 120;
#X msg 110 171 0;
#X msg 456 89 60 40;
#X msg 352 28 48 0;
#X msg 459 34 60 0;
#X obj 110 113 route 48;
#X obj 110 142 sel 0;
#X obj 253 431 sel 0;
#X obj 253 402 route 60;
#X obj 246 136 t l b l l;
#X connect 1 0 2 0;
#X connect 1 0 8 0;
#X connect 3 0 5 0;
#X connect 3 1 5 1;
#X connect 3 1 1 0;
#X connect 4 0 0 0;
#X connect 4 0 7 0;
#X connect 4 0 25 0;
#X connect 5 0 4 0;
#X connect 5 0 15 0;
#X connect 7 0 6 0;
#X connect 8 0 15 1;
#X connect 8 0 23 0;
#X connect 9 0 10 0;
#X connect 10 0 11 0;
#X connect 10 0 12 0;
#X connect 12 0 13 0;
#X connect 12 0 14 0;
#X connect 12 0 24 0;
#X connect 14 0 15 1;
#X connect 15 0 20 0;
#X connect 15 0 21 0;
#X connect 16 0 17 0;
#X connect 17 0 18 0;
#X connect 18 0 19 0;
#X connect 18 0 15 0;
#X connect 19 0 18 1;
#X connect 21 0 22 0;
#X connect 21 0 30 0;
#X connect 21 0 27 0;
#X connect 23 0 6 0;
#X connect 24 0 23 1;
#X connect 25 0 23 1;
#X connect 26 0 29 0;
#X connect 26 0 29 1;
#X connect 27 0 26 0;
#X connect 28 0 26 0;
#X connect 30 0 26 0;
#X connect 31 0 41 0;
#X connect 32 0 41 0;
#X connect 33 0 10 0;
#X connect 34 0 41 0;
#X connect 35 0 41 0;
#X connect 36 0 41 0;
#X connect 37 0 38 0;
#X connect 38 0 33 0;
#X connect 39 0 28 0;
#X connect 40 0 39 0;
#X connect 41 0 3 0;
#X connect 41 1 9 0;
#X connect 41 2 37 0;
#X connect 41 3 40 0;
