#N canvas 0 0 1920 1055 12;
#X obj 19 -1403 soundfiler;
#X floatatom 105 -1401 5 0 0 0 - - -, f 5;
#N canvas 0 0 450 300 (subpatch) 0;
#X array \$0_ぱaudiofile 61018 float 0 black black;
#X coords 0 1 61017 -1 200 140 1;
#X restore 419 -1437 graph;
#X obj 23 -531 *~;
#X obj 23 -1075 vline~;
#X obj 424 -1257 hsl 194 16 0 61018 0 0 empty empty empty -2 -8 0 10
-262144 -1 -1 0 1;
#X msg 19 -1350 range 0 \$1;
#X text 582 -1284 start;
#X obj 423 -1201 hsl 194 16 0 61018 0 0 empty empty empty -2 -8 0 10
-262144 -1 -1 19300 1;
#X text 597 -1229 end;
#X obj 104 -1223 pack 44.1 f f;
#X obj 104 -1191 expr abs($f3 - $f2) / $f1;
#X floatatom 196 -1081 5 0 0 0 - - -, f 5;
#X obj 104 -1273 bng 15 250 50 0 empty empty empty 17 7 0 10 -262144
-1 -1;
#X obj 23 -1138 pack f f f f;
#X floatatom 515 -1282 8 0 0 0 - - -, f 8;
#X floatatom 514 -1228 8 0 0 0 - - -, f 8;
#X msg 23 -1106 \$2 \, \$3 \$4;
#X obj 23 -1228 metro;
#X obj 23 -1250 bng 15 250 50 0 empty empty empty 17 7 0 10 -262144
-1 -1;
#X msg 47 -1251 0, f 2;
#X obj 23 -1201 bng 15 250 50 0 empty empty empty 17 7 0 10 -262144
-1 -1;
#N canvas 0 0 450 300 (subpatch) 0;
#X array \$0_ぱfade 66414 float 2 black black;
#X coords 0 1 66414 0 200 140 1;
#X restore 423 -1168 graph;
#X msg 245 -1050 range 0 \$1;
#X obj 53 -820 vline~;
#X obj 413 -680 vline~;
#X obj 53 -789 pow~ 1;
#X obj 413 -649 pow~ 1;
#X obj 313 -671 snapshot~;
#X floatatom 313 -648 5 0 0 0 - - -, f 5;
#X obj 388 -758 vsl 15 128 0 1 0 0 empty empty empty 0 -9 0 10 -262144
-1 -1 0 1;
#X obj 313 -722 bng 15 250 50 0 empty empty empty 17 7 0 10 -262144
-1 -1;
#X obj 538 -670 snapshot~;
#X floatatom 538 -647 5 0 0 0 - - -, f 5;
#X obj 538 -697 metro 100;
#X obj 611 -760 vsl 15 128 0 1 0 0 empty empty empty 0 -9 0 10 -262144
-1 -1 0 1;
#X obj 538 -722 bng 15 250 50 0 empty empty empty 17 7 0 10 -262144
-1 -1;
#X floatatom 53 -1004 5 0 0 0 - - -, f 5;
#X floatatom 446 -1003 5 0 0 0 - - -, f 5;
#X obj 54 -960 expr $f1 - ($f2 + $f3);
#X floatatom 250 -961 5 0 0 0 - - -, f 5;
#X obj 53 -897 pack f f f;
#X msg 53 -852 1 \$2 \, 0 0 \$2;
#X msg 413 -709 1 0 \$2 \, 0 \$3 \$1;
#X obj 53 -927 +;
#X obj 69 -670 snapshot~;
#X floatatom 69 -647 5 0 0 0 - - -, f 5;
#X obj 69 -697 metro 100;
#X obj 147 -759 vsl 15 128 0 1 0 0 empty empty empty 0 -9 0 10 -262144
-1 -1 0 1;
#X obj 69 -719 bng 15 250 50 0 empty empty empty 17 7 0 10 -262144
-1 -1;
#X obj 23 -587 *~;
#X obj 245 -1080 / 2;
#X floatatom 283 -1080 5 0 0 0 - - -, f 5;
#X obj 105 -1350 * 1.08844;
#X floatatom 180 -1350 9 0 0 0 - - -, f 9;
#X obj 105 -1373 bng 15 250 50 0 empty empty empty 17 7 0 10 -262144
-1 -1;
#X obj 491 -1000 hsl 128 15 0 691.814 0 0 empty empty empty -2 -8 0
10 -262144 -1 -1 0 1;
#X obj 101 -1002 hsl 128 15 0 691.814 0 0 empty empty empty -2 -8 0
10 -262144 -1 -1 0 1;
#X obj 250 -898 hsl 128 15 0 1 0 0 empty empty empty -2 -8 0 10 -262144
-1 -1 12700 1;
#X obj 250 -815 hsl 128 15 0 10 0 0 empty empty empty -2 -8 0 10 -262144
-1 -1 0 1;
#X floatatom 346 -790 5 0 0 0 - - -, f 5;
#X floatatom 345 -873 5 0 0 0 - - -, f 5;
#X obj 172 -844 f;
#X obj 204 -844 f;
#X obj 172 -816 +;
#X floatatom 204 -815 5 0 0 0 - - -, f 5;
#X obj 172 -872 t b b;
#X obj 224 -871 bng 15 250 50 0 empty empty empty 17 7 0 10 -262144
-1 -1;
#X obj 172 -925 bng 15 250 50 0 empty empty empty 17 7 0 10 -262144
-1 -1;
#X msg 202 -926 stop;
#X text 295 -844 exponent > 1;
#X text 261 -927 rational exponent;
#X obj 172 -759 line;
#X floatatom 215 -760 10 0 0 0 - - -, f 10;
#X obj 172 -786 pack f 100;
#X obj 491 -899 hsl 128 15 0 1 0 0 empty empty empty -2 -8 0 10 -262144
-1 -1 12700 1;
#X obj 491 -816 hsl 128 15 0 10 0 0 empty empty empty -2 -8 0 10 -262144
-1 -1 0 1;
#X floatatom 587 -790 5 0 0 0 - - -, f 5;
#X floatatom 587 -875 5 0 0 0 - - -, f 5;
#X obj 413 -845 f;
#X obj 445 -845 f;
#X obj 413 -817 +;
#X floatatom 445 -816 5 0 0 0 - - -, f 5;
#X obj 413 -873 t b b;
#X obj 464 -873 bng 15 250 50 0 empty empty empty 17 7 0 10 -262144
-1 -1;
#X obj 413 -926 bng 15 250 50 0 empty empty empty 17 7 0 10 -262144
-1 -1;
#X msg 443 -927 stop;
#X text 536 -845 exponent > 1;
#X text 502 -928 rational exponent;
#X obj 413 -760 line;
#X floatatom 456 -761 10 0 0 0 - - -, f 10;
#X obj 413 -787 pack f 100;
#X obj 153 -588 hsl 370 47 0 1 0 0 empty empty empty -2 -8 0 10 -262144
-1 -1 9225 1;
#X obj 68 -561 line;
#X floatatom 68 -528 10 0 0 0 - - -, f 10;
#X obj 68 -588 pack f 100;
#X obj 274 -1436 bng 136 250 50 0 empty empty empty 17 7 0 10 -262144
-1 -1;
#X obj 413 -901 metro 100;
#X obj 172 -900 metro 100;
#X obj 585 -643 bng 15 250 50 0 empty empty empty 17 7 0 10 -262144
-1 -1;
#X obj 121 -645 bng 15 250 50 0 empty empty empty 17 7 0 10 -262144
-1 -1;
#X obj 364 -645 bng 15 250 50 0 empty empty empty 17 7 0 10 -262144
-1 -1;
#X msg 569 -722 stop;
#X msg 101 -722 stop;
#X msg 344 -724 stop;
#X obj 313 -698 metro 100;
#X obj 327 -1219 f;
#X obj 327 -1268 bng 15 250 50 0 empty empty empty 17 7 0 10 -262144
-1 -1;
#X text 249 -1004 fadein;
#X text 571 -971 fadeout;
#X obj 544 -584 bng 15 250 50 0 empty empty empty 17 7 0 10 -262144
-1 -1;
#X obj 544 -561 t b b b b b;
#X text 585 -586 panic;
#X obj 306 -1004 bng 15 250 50 0 empty empty empty 17 7 0 10 -262144
-1 -1;
#X obj 306 -977 t b b b b b b b b;
#X obj 368 -1006 loadbang;
#X obj 327 -1189 ii;
#X obj 491 -961 ii 1;
#X obj 153 -615 ii 0.25;
#X obj 796 -1182 vline~;
#X obj 702 -1210 snapshot~;
#X floatatom 702 -1187 5 0 0 0 - - -, f 5;
#X obj 702 -1237 metro 100;
#X obj 774 -1293 vsl 15 128 0 1 0 0 empty empty empty 0 -9 0 10 -262144
-1 -1 0 1;
#X obj 702 -1262 bng 15 250 50 0 empty empty empty 17 7 0 10 -262144
-1 -1;
#X obj 749 -1183 bng 15 250 50 0 empty empty empty 17 7 0 10 -262144
-1 -1;
#X msg 733 -1262 stop;
#X obj 104 -1251 t b b;
#X obj 23 -558 *~;
#X obj 701 -1109 rescale;
#X msg 716 -1137 0;
#X msg 750 -1135 127;
#X msg 786 -1135 0;
#X msg 824 -1135 \$1;
#X obj 866 -883 loadbang;
#X obj 704 -1049 rescale;
#X msg 718 -1079 0;
#X msg 752 -1077 127;
#X msg 788 -1077 0;
#X msg 826 -1077 \$1;
#X obj 695 -978 rescale;
#X msg 709 -1008 0;
#X msg 743 -1008 127;
#X msg 778 -1008 0;
#X msg 812 -1008 \$1;
#X msg 843 -1211 1 10;
#X msg 796 -1211 0 10;
#X obj 695 -897 rescale;
#X msg 709 -927 0;
#X msg 743 -927 127;
#X msg 778 -927 0;
#X msg 812 -927 1;
#X obj 695 -819 rescale;
#X msg 709 -849 0;
#X msg 743 -849 127;
#X msg 778 -849 0;
#X msg 812 -849 10;
#X obj 688 -738 rescale;
#X msg 702 -768 0;
#X msg 736 -768 127;
#X msg 771 -768 0;
#X msg 805 -768 \$1;
#X obj 688 -657 rescale;
#X msg 702 -687 0;
#X msg 736 -687 127;
#X msg 771 -687 0;
#X msg 805 -687 1;
#X obj 688 -579 rescale;
#X msg 702 -609 0;
#X msg 736 -609 127;
#X msg 771 -609 0;
#X msg 805 -609 10;
#X obj 694 -509 rescale;
#X msg 708 -539 0;
#X msg 742 -539 127;
#X msg 777 -539 0;
#X msg 811 -539 1;
#X obj 23 -476 outlet~;
#X obj 714 -1453 inlet;
#X obj 714 -1423 unpack f f f f f f f f f f f;
#X obj 631 -1437 loadbang;
#X obj 631 -1408 del 100;
#X obj 327 -1246 del 100;
#X obj 1070 -1147 bng 15 250 50 0 empty empty empty 17 7 0 10 -262144
-1 -1;
#X obj 1166 -1185 sel 0;
#X obj 1144 -1182 bng 15 250 50 0 empty empty empty 17 7 0 10 -262144
-1 -1;
#X obj 1092 -1219 unpack;
#X obj 1092 -1187 spigot;
#X msg 1165 -1149 0;
#X obj 987 -1244 bng 15 250 50 0 empty empty empty 17 7 0 10 -262144
-1 -1;
#X floatatom 943 -1219 5 0 0 0 - - -, f 5;
#X obj 967 -1185 bng 15 250 50 0 empty empty empty 17 7 0 10 -262144
-1 -1;
#X msg 987 -1150 1;
#X obj 948 -1109 spigot;
#X obj 927 -1073 bng 15 250 50 0 empty empty empty 17 7 0 10 -262144
-1 -1;
#X obj 1165 -1076 spigot;
#X msg 1024 -1149 0;
#X msg 1133 -1111 1;
#X msg 950 -1249 0;
#X obj 950 -1278 sel 0;
#X obj 1007 -1075 sel 0;
#X obj 967 -1343 t l b l l;
#X obj 967 -1372 pack f f;
#X obj 1053 -1072 bng 15 250 50 0 empty empty empty 17 7 0 10 -262144
-1 -1;
#X obj 948 -1077 sel 60;
#X obj 1007 -1109 route 60;
#X msg 1092 -1112 50;
#X obj 1092 -1151 sel 50;
#X obj 987 -1187 sel 50;
#X obj 950 -1307 route 50;
#X obj 1092 -1042 value ぱopen;
#X obj 987 -1225 value ぱopen;
#X msg 19 -1450 read -resize ぱ.wav \$0_ぱaudiofile, f 33;
#X msg 105 -1322 \; \$0_ぱfade resize \$1;
#X obj 23 -1045 tabread4~ \$0_ぱaudiofile;
#X obj 170 -645 tabwrite~ \$0_ぱfade;
#X connect 0 0 1 0;
#X connect 0 0 6 0;
#X connect 0 0 53 0;
#X connect 0 0 107 0;
#X connect 0 0 106 1;
#X connect 3 0 177 0;
#X connect 4 0 214 0;
#X connect 5 0 15 0;
#X connect 5 0 10 1;
#X connect 6 0 5 0;
#X connect 6 0 8 0;
#X connect 8 0 16 0;
#X connect 8 0 10 2;
#X connect 10 0 11 0;
#X connect 10 0 14 0;
#X connect 11 0 12 0;
#X connect 11 0 14 3;
#X connect 11 0 18 1;
#X connect 11 0 39 0;
#X connect 11 0 51 0;
#X connect 13 0 127 0;
#X connect 14 0 17 0;
#X connect 17 0 4 0;
#X connect 18 0 21 0;
#X connect 18 0 13 0;
#X connect 19 0 18 0;
#X connect 20 0 18 0;
#X connect 23 0 56 0;
#X connect 23 0 57 0;
#X connect 24 0 26 0;
#X connect 25 0 27 0;
#X connect 26 0 28 0;
#X connect 26 0 45 0;
#X connect 26 0 50 1;
#X connect 26 0 215 0;
#X connect 27 0 45 0;
#X connect 27 0 50 1;
#X connect 27 0 32 0;
#X connect 27 0 215 0;
#X connect 28 0 29 0;
#X connect 29 0 30 0;
#X connect 31 0 105 0;
#X connect 32 0 33 0;
#X connect 33 0 35 0;
#X connect 34 0 32 0;
#X connect 34 0 99 0;
#X connect 36 0 34 0;
#X connect 39 0 40 0;
#X connect 39 0 44 0;
#X connect 41 0 42 0;
#X connect 41 0 43 0;
#X connect 42 0 24 0;
#X connect 43 0 25 0;
#X connect 44 0 41 0;
#X connect 45 0 46 0;
#X connect 46 0 48 0;
#X connect 47 0 45 0;
#X connect 47 0 100 0;
#X connect 49 0 47 0;
#X connect 50 0 128 0;
#X connect 51 0 52 0;
#X connect 51 0 23 0;
#X connect 51 0 144 0;
#X connect 51 0 161 0;
#X connect 53 0 54 0;
#X connect 53 0 213 0;
#X connect 55 0 53 0;
#X connect 56 0 39 2;
#X connect 56 0 41 2;
#X connect 56 0 38 0;
#X connect 57 0 37 0;
#X connect 57 0 41 1;
#X connect 57 0 44 1;
#X connect 57 0 39 1;
#X connect 58 0 61 0;
#X connect 58 0 62 1;
#X connect 59 0 60 0;
#X connect 59 0 63 1;
#X connect 62 0 64 0;
#X connect 63 0 64 1;
#X connect 64 0 65 0;
#X connect 64 0 74 0;
#X connect 66 0 62 0;
#X connect 66 1 63 0;
#X connect 68 0 98 0;
#X connect 69 0 98 0;
#X connect 72 0 73 0;
#X connect 72 0 26 1;
#X connect 74 0 72 0;
#X connect 75 0 78 0;
#X connect 75 0 79 1;
#X connect 76 0 77 0;
#X connect 76 0 80 1;
#X connect 79 0 81 0;
#X connect 80 0 81 1;
#X connect 81 0 82 0;
#X connect 81 0 91 0;
#X connect 83 0 79 0;
#X connect 83 1 80 0;
#X connect 85 0 97 0;
#X connect 86 0 97 0;
#X connect 89 0 90 0;
#X connect 89 0 27 1;
#X connect 91 0 89 0;
#X connect 92 0 95 0;
#X connect 93 0 3 1;
#X connect 93 0 94 0;
#X connect 95 0 93 0;
#X connect 96 0 13 0;
#X connect 97 0 84 0;
#X connect 97 0 83 0;
#X connect 98 0 67 0;
#X connect 98 0 66 0;
#X connect 102 0 34 0;
#X connect 103 0 47 0;
#X connect 104 0 105 0;
#X connect 105 0 28 0;
#X connect 105 0 101 0;
#X connect 106 0 116 0;
#X connect 106 0 133 0;
#X connect 106 0 139 0;
#X connect 107 0 182 0;
#X connect 110 0 111 0;
#X connect 111 0 103 0;
#X connect 111 1 104 0;
#X connect 111 2 69 0;
#X connect 111 3 86 0;
#X connect 111 4 102 0;
#X connect 113 0 114 0;
#X connect 114 0 49 0;
#X connect 114 1 31 0;
#X connect 114 2 36 0;
#X connect 114 3 68 0;
#X connect 114 4 85 0;
#X connect 114 6 212 0;
#X connect 115 0 114 0;
#X connect 116 0 8 0;
#X connect 117 0 58 0;
#X connect 117 0 75 0;
#X connect 118 0 92 0;
#X connect 119 0 120 0;
#X connect 119 0 128 1;
#X connect 120 0 121 0;
#X connect 121 0 123 0;
#X connect 122 0 120 0;
#X connect 122 0 125 0;
#X connect 124 0 122 0;
#X connect 126 0 122 0;
#X connect 127 0 10 0;
#X connect 127 1 215 0;
#X connect 128 0 3 0;
#X connect 129 0 5 0;
#X connect 130 0 129 1;
#X connect 131 0 129 2;
#X connect 132 0 129 3;
#X connect 133 0 129 4;
#X connect 134 0 124 0;
#X connect 134 0 132 0;
#X connect 134 0 131 0;
#X connect 134 0 130 0;
#X connect 134 0 136 0;
#X connect 134 0 137 0;
#X connect 134 0 138 0;
#X connect 134 0 143 0;
#X connect 134 0 142 0;
#X connect 134 0 141 0;
#X connect 134 0 148 0;
#X connect 134 0 149 0;
#X connect 134 0 150 0;
#X connect 134 0 151 0;
#X connect 134 0 153 0;
#X connect 134 0 154 0;
#X connect 134 0 155 0;
#X connect 134 0 156 0;
#X connect 134 0 158 0;
#X connect 134 0 159 0;
#X connect 134 0 160 0;
#X connect 134 0 163 0;
#X connect 134 0 164 0;
#X connect 134 0 165 0;
#X connect 134 0 166 0;
#X connect 134 0 168 0;
#X connect 134 0 171 0;
#X connect 134 0 170 0;
#X connect 134 0 169 0;
#X connect 134 0 173 0;
#X connect 134 0 176 0;
#X connect 134 0 175 0;
#X connect 134 0 174 0;
#X connect 135 0 8 0;
#X connect 136 0 135 1;
#X connect 137 0 135 2;
#X connect 138 0 135 3;
#X connect 139 0 135 4;
#X connect 140 0 57 0;
#X connect 141 0 140 1;
#X connect 142 0 140 2;
#X connect 143 0 140 3;
#X connect 144 0 140 4;
#X connect 145 0 119 0;
#X connect 146 0 119 0;
#X connect 147 0 58 0;
#X connect 148 0 147 1;
#X connect 149 0 147 2;
#X connect 150 0 147 3;
#X connect 151 0 147 4;
#X connect 152 0 59 0;
#X connect 153 0 152 1;
#X connect 154 0 152 2;
#X connect 155 0 152 3;
#X connect 156 0 152 4;
#X connect 157 0 56 0;
#X connect 158 0 157 1;
#X connect 159 0 157 2;
#X connect 160 0 157 3;
#X connect 161 0 157 4;
#X connect 162 0 75 0;
#X connect 163 0 162 1;
#X connect 164 0 162 2;
#X connect 165 0 162 3;
#X connect 166 0 162 4;
#X connect 167 0 76 0;
#X connect 168 0 167 1;
#X connect 169 0 167 2;
#X connect 170 0 167 3;
#X connect 171 0 167 4;
#X connect 172 0 92 0;
#X connect 173 0 172 1;
#X connect 174 0 172 2;
#X connect 175 0 172 3;
#X connect 176 0 172 4;
#X connect 178 0 179 0;
#X connect 179 0 202 0;
#X connect 179 1 202 1;
#X connect 179 2 129 0;
#X connect 179 3 135 0;
#X connect 179 4 140 0;
#X connect 179 5 147 0;
#X connect 179 6 152 0;
#X connect 179 7 157 0;
#X connect 179 8 162 0;
#X connect 179 9 167 0;
#X connect 179 10 172 0;
#X connect 180 0 181 0;
#X connect 181 0 96 0;
#X connect 182 0 106 0;
#X connect 184 0 185 0;
#X connect 184 0 188 0;
#X connect 186 0 187 0;
#X connect 186 1 187 1;
#X connect 186 1 184 0;
#X connect 187 0 193 0;
#X connect 187 0 207 0;
#X connect 188 0 193 1;
#X connect 188 0 195 0;
#X connect 189 0 211 0;
#X connect 192 0 193 1;
#X connect 193 0 204 0;
#X connect 195 0 210 0;
#X connect 196 0 195 1;
#X connect 197 0 195 1;
#X connect 198 0 211 0;
#X connect 199 0 198 0;
#X connect 200 0 203 0;
#X connect 200 0 146 0;
#X connect 201 0 186 0;
#X connect 201 1 189 0;
#X connect 201 2 209 0;
#X connect 201 3 205 0;
#X connect 202 0 201 0;
#X connect 204 0 194 0;
#X connect 204 0 145 0;
#X connect 204 0 96 0;
#X connect 205 0 200 0;
#X connect 206 0 210 0;
#X connect 207 0 183 0;
#X connect 207 0 206 0;
#X connect 207 0 197 0;
#X connect 208 0 191 0;
#X connect 208 0 192 0;
#X connect 208 0 196 0;
#X connect 209 0 199 0;
#X connect 211 0 190 0;
#X connect 211 0 208 0;
#X connect 212 0 0 0;
#X connect 214 0 50 0;
